<svg xmlns="http://www.w3.org/2000/svg" viewBox="0 0 240 560">
	<path
		d="M572,232H412a20.06,20.06,0,0,0-20,20v40a20.06,20.06,0,0,0,20,20H532a20.06,20.06,0,0,1,20,20V612a20.06,20.06,0,0,0,20,20h40a20.06,20.06,0,0,0,20-20V252a20.06,20.06,0,0,0-20-20Z"
		transform="translate(-392 -232)" fill="#082dff" />
	<path
		d="M492,712a20.06,20.06,0,0,1-20-20V412a20.06,20.06,0,0,0-20-20H412a20.06,20.06,0,0,0-20,20V772a20.06,20.06,0,0,0,20,20H612a20.06,20.06,0,0,0,20-20V732a20.06,20.06,0,0,0-20-20Z"
		transform="translate(-392 -232)" fill="#082dff" />
</svg>