<svg xmlns="http://www.w3.org/2000/svg" xmlns:xlink="http://www.w3.org/1999/xlink" viewBox="0 0 180 210">
	<defs>
		<linearGradient id="a" x1="214.09" y1="227.16" x2="42.01" y2="28.96" gradientUnits="userSpaceOnUse">
			<stop offset="0" stop-color="#00d0fe" />
			<stop offset="0.33" stop-color="#029efe" />
			<stop offset="1" stop-color="#082dff" />
		</linearGradient>
	</defs>
	<path
		d="M140.5,203h70a7.53,7.53,0,0,1,7.5,7.5v15a7.52,7.52,0,0,1-7.5,7.5H45.5a7.52,7.52,0,0,1-7.5-7.5V90.5A7.52,7.52,0,0,1,45.5,83h105a7.52,7.52,0,0,1,7.5,7.5v15a7.52,7.52,0,0,1-7.5,7.5h-75a7.52,7.52,0,0,0-7.5,7.5v75a7.52,7.52,0,0,0,7.5,7.5ZM195.38,23H45.5A7.53,7.53,0,0,0,38,30.5v15A7.52,7.52,0,0,0,45.5,53h135a7.52,7.52,0,0,1,7.5,7.5v75a7.52,7.52,0,0,1-7.5,7.5h-76a7.52,7.52,0,0,0-7.5,7.5v15a7.52,7.52,0,0,0,7.5,7.5h106a7.52,7.52,0,0,0,7.5-7.5V30.5a7.52,7.52,0,0,0-7.5-7.5Z"
		transform="translate(-38 -23)" fill="url(#a)" />
</svg>