<?xml version="1.0" standalone="no"?>
<!DOCTYPE svg PUBLIC "-//W3C//DTD SVG 20010904//EN"
 "http://www.w3.org/TR/2001/REC-SVG-20010904/DTD/svg10.dtd">
<svg version="1.0" xmlns="http://www.w3.org/2000/svg"
 width="2240.000000pt" height="2240.000000pt" viewBox="0 0 2240.000000 2240.000000"
 preserveAspectRatio="xMidYMid meet">
<metadata>
Created by potrace 1.14, written by Peter Selinger 2001-2017
</metadata>
<g transform="translate(0.000000,2240.000000) scale(0.100000,-0.100000)"
fill="#000000" stroke="none">
<path d="M7109 22396 c-2 -2 -22 -6 -44 -9 -22 -3 -61 -12 -87 -20 -26 -8 -49
-12 -52 -9 -4 3 -6 0 -6 -6 0 -7 -9 -12 -20 -12 -11 0 -20 -4 -20 -8 0 -4 -9
-8 -20 -9 -11 -1 -25 -7 -32 -12 -7 -6 -41 -30 -76 -52 -71 -46 -161 -134
-201 -194 -14 -22 -29 -42 -32 -45 -11 -8 -50 -92 -70 -150 -48 -134 -48 -131
-48 -1070 0 -768 2 -894 15 -950 9 -36 17 -70 18 -77 1 -7 5 -16 9 -19 4 -4 7
-17 7 -29 0 -11 5 -26 12 -33 7 -7 8 -12 3 -12 -6 0 -6 -3 0 -8 6 -4 20 -28
33 -54 13 -27 28 -48 33 -48 5 0 9 -6 9 -14 0 -30 179 -210 223 -225 7 -2 14
-7 17 -10 6 -7 121 -65 135 -67 6 -1 29 -9 53 -18 23 -8 42 -13 42 -11 0 3 12
0 26 -5 15 -6 58 -13 97 -15 38 -3 72 -7 74 -9 3 -2 18 0 34 4 16 5 29 6 29 2
0 -8 85 -6 106 2 7 3 16 1 19 -4 4 -6 13 -7 23 -1 11 6 24 6 34 0 10 -6 19 -6
23 0 3 6 15 7 28 2 12 -5 34 -5 49 0 16 4 28 4 28 -1 0 -6 10 -6 25 0 15 6 27
6 30 0 3 -5 15 -6 28 -1 12 5 32 5 45 0 12 -5 22 -5 22 1 0 5 13 5 30 0 17 -5
30 -6 30 -2 0 8 58 8 66 -1 3 -3 17 -2 30 3 15 6 24 6 24 0 0 -6 9 -6 23 -1
13 5 30 5 39 0 11 -6 19 -5 23 1 4 7 12 7 25 0 11 -6 21 -6 25 -1 3 6 17 6 35
1 17 -5 30 -5 30 0 0 5 12 5 28 1 15 -4 39 -4 55 0 15 4 27 4 27 0 0 -7 90 -4
98 3 2 3 15 1 28 -4 14 -6 24 -6 24 0 0 5 12 5 30 0 19 -5 30 -5 30 1 0 6 5 7
11 3 6 -3 39 -6 74 -6 35 0 68 3 74 6 6 4 11 4 11 -1 0 -4 16 -8 35 -8 19 0
35 4 35 8 0 5 5 5 11 1 6 -3 39 -6 74 -6 35 0 68 3 74 6 6 4 11 3 11 -3 0 -6
11 -6 30 -1 17 5 30 5 30 0 0 -4 15 -5 33 0 18 4 43 3 55 -1 12 -5 22 -4 22 1
0 5 13 5 30 0 17 -5 30 -6 30 -2 0 8 58 8 66 -1 3 -3 17 -2 30 3 15 6 24 6 24
0 0 -6 9 -6 23 -1 13 5 30 5 39 0 11 -6 19 -5 23 1 4 7 12 7 25 0 11 -6 21 -6
25 -1 3 6 17 6 35 1 17 -5 30 -5 30 0 0 5 12 5 28 1 15 -4 39 -4 55 0 15 4 27
4 27 0 0 -7 90 -4 98 3 2 3 15 1 28 -4 14 -6 24 -6 24 0 0 5 12 5 30 0 19 -5
30 -5 30 1 0 6 5 7 11 3 14 -8 134 -8 148 0 6 4 11 4 11 -1 0 -4 16 -8 35 -8
19 0 35 4 35 8 0 5 5 5 11 1 6 -3 39 -6 74 -6 35 0 68 3 74 6 6 4 11 3 11 -3
0 -6 11 -6 30 -1 16 5 30 6 30 2 0 -4 23 -7 50 -7 28 0 50 3 50 7 0 4 12 3 28
-1 15 -4 39 -4 55 0 15 4 27 3 27 -1 0 -5 14 -5 30 0 18 5 30 5 30 0 0 -6 10
-6 25 0 15 6 26 6 30 -1 4 -5 13 -6 22 0 9 5 29 5 45 1 16 -5 28 -5 28 0 0 6
10 6 25 0 14 -5 25 -6 25 -1 0 5 12 6 28 2 15 -4 42 -4 60 0 17 4 32 3 32 -2
0 -5 11 -4 25 1 15 6 26 6 30 0 4 -6 14 -6 28 2 12 6 22 11 22 10 0 -7 56 -19
60 -12 3 6 15 6 30 0 14 -5 25 -6 25 -2 0 8 52 8 66 -1 6 -3 16 -2 24 3 8 5
21 5 30 0 9 -5 22 -5 30 0 8 5 21 5 31 -1 11 -6 20 -5 24 1 4 7 12 7 25 0 11
-6 21 -6 25 -1 3 6 17 6 35 1 19 -5 30 -5 30 1 0 6 5 7 11 3 13 -8 187 -9 195
-1 4 3 17 2 30 -3 14 -6 24 -6 24 0 0 5 12 5 30 0 17 -5 30 -5 30 0 0 5 12 5
28 1 15 -4 39 -4 55 0 15 4 27 3 27 -1 0 -5 14 -5 30 0 18 5 30 5 30 0 0 -6
10 -6 25 0 15 6 27 6 30 0 3 -6 15 -6 30 0 15 6 27 6 30 0 4 -6 13 -7 24 -1
10 6 23 6 31 1 8 -5 21 -5 31 0 9 5 19 6 23 3 4 -4 26 -8 49 -8 23 -1 58 -6
77 -10 19 -5 42 -10 50 -10 8 -1 24 -5 35 -10 11 -4 40 -16 65 -26 49 -18 137
-66 156 -83 7 -6 27 -22 45 -36 105 -80 206 -221 251 -350 24 -71 44 -165 43
-212 0 -21 3 -38 8 -38 4 0 3 -9 -3 -19 -7 -13 -7 -22 0 -26 7 -4 7 -13 0 -26
-7 -12 -7 -19 -1 -19 7 0 7 -9 1 -25 -6 -15 -6 -26 0 -30 6 -4 7 -13 1 -23 -6
-11 -6 -24 0 -34 6 -10 6 -19 0 -23 -7 -4 -7 -15 -1 -30 6 -16 6 -25 0 -25 -6
0 -6 -9 0 -25 6 -16 6 -25 0 -25 -6 0 -6 -9 0 -25 5 -14 6 -25 2 -25 -8 0 -7
-162 1 -185 4 -8 3 -15 -1 -15 -4 0 -7 -38 -7 -85 0 -47 3 -85 7 -85 4 0 3
-11 -2 -25 -6 -16 -6 -25 0 -25 6 0 6 -9 0 -25 -6 -16 -6 -25 0 -25 6 0 6 -9
0 -25 -6 -15 -6 -26 0 -30 7 -4 6 -13 0 -25 -7 -13 -7 -21 0 -25 7 -4 7 -12 0
-25 -7 -13 -7 -21 0 -25 7 -4 7 -13 0 -26 -7 -12 -7 -19 -1 -19 7 0 7 -9 1
-25 -6 -15 -6 -26 1 -30 6 -4 6 -13 0 -23 -6 -10 -6 -23 0 -34 6 -10 5 -19 -1
-23 -6 -4 -6 -15 0 -30 6 -16 6 -25 0 -25 -6 0 -6 -9 0 -25 6 -16 6 -25 0 -25
-6 0 -6 -9 0 -25 5 -14 6 -25 2 -25 -8 0 -7 -162 1 -185 4 -8 3 -15 -1 -15 -4
0 -7 -38 -7 -85 0 -47 3 -85 7 -85 4 0 3 -11 -2 -25 -6 -16 -6 -25 0 -25 6 0
6 -9 0 -25 -6 -16 -6 -25 0 -25 6 0 6 -9 0 -25 -6 -15 -6 -26 0 -30 7 -4 6
-13 0 -25 -7 -13 -7 -21 0 -25 7 -4 7 -12 0 -25 -7 -13 -7 -21 0 -25 7 -4 7
-13 0 -26 -7 -12 -7 -19 -1 -19 7 0 7 -9 1 -25 -6 -15 -6 -26 0 -30 6 -4 7
-13 1 -23 -6 -11 -6 -24 0 -34 6 -10 6 -19 0 -23 -7 -4 -7 -15 -1 -30 6 -16 6
-25 0 -25 -6 0 -6 -9 0 -25 6 -16 6 -25 0 -25 -6 0 -6 -9 0 -25 5 -14 6 -25 2
-25 -8 0 -7 -162 1 -185 4 -8 3 -15 -1 -15 -4 0 -7 -38 -7 -85 0 -47 3 -85 7
-85 4 0 3 -11 -2 -25 -6 -16 -6 -25 0 -25 6 0 6 -9 0 -25 -6 -16 -6 -25 0 -25
6 0 6 -9 0 -25 -6 -15 -6 -26 0 -30 7 -4 6 -13 0 -25 -7 -13 -7 -21 0 -25 7
-4 7 -12 0 -25 -7 -13 -7 -21 0 -25 7 -4 7 -13 0 -26 -7 -12 -7 -19 -1 -19 7
0 7 -9 1 -25 -6 -15 -6 -27 0 -30 5 -3 7 -11 4 -18 -8 -22 -10 -107 -2 -107 4
0 3 -11 -2 -25 -6 -16 -6 -25 0 -25 6 0 6 -9 0 -25 -6 -16 -6 -25 0 -25 6 0 6
-9 0 -25 -6 -15 -6 -26 0 -30 7 -4 6 -13 0 -25 -7 -13 -7 -21 0 -25 7 -4 7
-12 0 -25 -7 -13 -7 -21 0 -25 7 -4 7 -13 0 -26 -7 -12 -7 -19 -1 -19 7 0 7
-9 1 -25 -6 -15 -6 -26 0 -30 6 -4 7 -13 1 -23 -6 -11 -6 -24 0 -34 6 -10 6
-19 0 -23 -7 -4 -7 -15 -1 -30 6 -16 6 -25 0 -25 -6 0 -6 -9 -1 -22 8 -22 6
-67 -4 -76 -2 -2 0 -15 5 -28 6 -16 6 -24 -1 -24 -6 0 -6 -6 0 -18 7 -13 7
-22 0 -29 -8 -8 -7 -13 0 -17 8 -5 8 -13 1 -27 -7 -12 -7 -19 -1 -19 7 0 7 -8
2 -22 -5 -13 -5 -33 0 -45 5 -14 5 -23 -2 -23 -6 0 -6 -6 0 -18 6 -11 6 -24 0
-35 -7 -11 -7 -17 0 -17 7 0 7 -8 2 -22 -5 -13 -5 -33 0 -45 5 -14 5 -23 -2
-23 -6 0 -6 -6 0 -18 7 -13 7 -22 0 -29 -8 -8 -7 -13 0 -17 8 -5 8 -13 1 -27
-7 -12 -7 -19 -1 -19 7 0 7 -8 2 -22 -5 -13 -5 -32 -1 -43 4 -11 4 -29 0 -40
-4 -11 -4 -30 1 -42 5 -14 5 -23 -2 -23 -6 0 -6 -6 0 -18 7 -13 7 -22 0 -29
-8 -8 -7 -13 0 -17 8 -5 8 -13 1 -27 -7 -12 -7 -19 -1 -19 7 0 7 -8 2 -22 -5
-13 -5 -33 0 -45 5 -14 5 -23 -2 -23 -6 0 -6 -6 0 -18 6 -11 6 -24 0 -35 -7
-11 -7 -17 0 -17 7 0 7 -8 2 -22 -5 -13 -5 -33 0 -45 5 -14 5 -23 -2 -23 -6 0
-6 -6 0 -18 7 -13 7 -22 0 -29 -8 -8 -7 -13 0 -17 8 -5 8 -13 1 -27 -7 -12 -7
-19 -1 -19 7 0 7 -8 2 -22 -5 -13 -5 -32 -1 -43 4 -11 4 -29 0 -40 -4 -11 -4
-30 1 -42 5 -14 5 -23 -2 -23 -6 0 -6 -6 0 -18 7 -13 7 -22 0 -29 -8 -8 -7
-13 0 -17 8 -5 8 -13 1 -27 -7 -12 -7 -19 -1 -19 7 0 7 -8 2 -22 -5 -13 -5
-33 0 -45 5 -14 5 -23 -2 -23 -6 0 -6 -6 0 -18 6 -11 6 -24 0 -35 -7 -11 -7
-17 0 -17 7 0 7 -8 2 -22 -5 -13 -5 -33 0 -45 5 -14 5 -23 -2 -23 -6 0 -6 -6
0 -18 7 -13 7 -22 0 -29 -8 -8 -7 -13 0 -17 8 -5 8 -13 1 -27 -7 -12 -7 -19
-1 -19 7 0 7 -8 2 -22 -5 -13 -5 -32 -1 -43 4 -11 4 -29 0 -40 -4 -11 -4 -30
1 -42 5 -14 5 -23 -2 -23 -6 0 -6 -6 0 -18 7 -13 7 -22 0 -29 -8 -8 -7 -13 0
-17 8 -5 8 -13 1 -27 -7 -12 -7 -19 -1 -19 7 0 7 -8 2 -22 -5 -13 -5 -33 0
-45 5 -14 5 -23 -2 -23 -6 0 -6 -6 0 -18 6 -11 6 -24 0 -35 -7 -11 -7 -17 0
-17 7 0 7 -8 2 -22 -5 -13 -5 -33 0 -45 5 -14 5 -23 -2 -23 -6 0 -6 -6 0 -18
7 -13 7 -22 0 -29 -8 -8 -7 -13 0 -17 8 -5 8 -13 1 -27 -7 -12 -7 -19 -1 -19
7 0 7 -8 2 -22 -5 -13 -5 -32 -1 -43 4 -11 4 -29 0 -40 -4 -11 -4 -30 1 -42 5
-15 5 -23 -2 -23 -6 0 -6 -6 0 -18 7 -13 7 -22 0 -29 -8 -8 -7 -13 0 -17 8 -5
8 -13 1 -27 -7 -12 -7 -19 -1 -19 7 0 7 -8 2 -22 -5 -13 -5 -33 0 -45 5 -14 5
-23 -2 -23 -6 0 -6 -6 0 -18 6 -11 6 -24 0 -35 -7 -11 -7 -17 0 -17 7 0 7 -8
2 -22 -5 -13 -5 -33 0 -45 5 -14 5 -23 -2 -23 -6 0 -6 -6 0 -18 7 -13 7 -22 0
-29 -8 -8 -7 -13 0 -17 8 -5 8 -13 1 -27 -7 -12 -7 -19 -1 -19 7 0 7 -8 2 -22
-5 -13 -5 -32 -1 -43 4 -11 4 -29 0 -40 -4 -11 -4 -30 1 -42 5 -14 5 -23 -2
-23 -6 0 -6 -6 0 -18 7 -13 7 -22 0 -29 -8 -8 -7 -13 0 -17 8 -5 8 -13 1 -27
-7 -12 -7 -19 -1 -19 7 0 7 -8 2 -22 -5 -13 -5 -33 0 -45 5 -14 5 -23 -2 -23
-6 0 -6 -6 0 -18 6 -11 6 -24 0 -35 -7 -11 -7 -17 0 -17 7 0 7 -8 2 -22 -5
-13 -5 -33 0 -45 5 -14 5 -23 -2 -23 -6 0 -6 -6 0 -18 7 -13 7 -22 0 -29 -8
-8 -7 -13 0 -17 8 -5 8 -13 1 -27 -7 -12 -7 -19 -1 -19 7 0 7 -8 2 -22 -5 -13
-5 -32 -1 -43 4 -11 4 -29 0 -40 -4 -11 -4 -30 1 -42 5 -14 5 -23 -2 -23 -6 0
-6 -6 0 -18 7 -13 7 -22 0 -29 -8 -8 -7 -13 0 -17 8 -5 8 -13 1 -27 -7 -12 -7
-19 -1 -19 7 0 7 -8 2 -22 -5 -13 -5 -33 0 -45 5 -14 5 -23 -2 -23 -6 0 -6 -6
0 -18 6 -11 6 -24 0 -35 -7 -11 -7 -17 0 -17 7 0 7 -8 2 -22 -5 -13 -5 -33 0
-45 5 -14 5 -23 -2 -23 -6 0 -6 -6 0 -18 7 -13 7 -22 0 -29 -8 -8 -7 -13 0
-17 8 -5 8 -13 1 -27 -7 -12 -7 -19 -1 -19 7 0 7 -8 2 -22 -5 -13 -5 -32 -1
-43 4 -11 4 -29 0 -40 -4 -11 -4 -30 1 -42 5 -14 5 -23 -2 -23 -6 0 -6 -6 0
-18 7 -13 7 -22 0 -29 -8 -8 -7 -13 0 -17 8 -5 8 -13 1 -27 -7 -12 -7 -19 -1
-19 7 0 7 -8 2 -22 -5 -13 -5 -33 0 -45 5 -14 5 -23 -2 -23 -6 0 -6 -6 0 -18
6 -11 6 -24 0 -35 -7 -11 -7 -17 0 -17 7 0 7 -8 2 -22 -5 -13 -5 -33 0 -45 5
-14 5 -23 -2 -23 -6 0 -6 -6 0 -18 7 -13 7 -22 0 -29 -8 -8 -7 -13 0 -17 8 -5
8 -13 1 -27 -8 -13 -7 -19 0 -19 6 0 8 -5 5 -10 -9 -14 -10 -108 -2 -116 3 -4
2 -15 -3 -25 -7 -12 -7 -20 0 -24 7 -4 7 -12 0 -25 -7 -13 -7 -21 0 -25 6 -4
8 -11 5 -16 -9 -14 -11 -89 -3 -89 4 0 3 -11 -2 -25 -6 -16 -6 -25 0 -25 6 0
6 -9 0 -25 -6 -16 -6 -25 0 -25 6 0 6 -9 0 -25 -6 -15 -6 -26 0 -30 7 -4 6
-13 0 -25 -7 -13 -7 -21 0 -25 7 -4 7 -12 0 -25 -7 -13 -7 -21 0 -25 7 -4 7
-13 0 -26 -7 -12 -7 -19 -1 -19 7 0 7 -9 1 -25 -6 -15 -6 -26 0 -30 6 -4 7
-13 1 -23 -6 -11 -6 -24 0 -34 6 -10 6 -19 0 -23 -7 -4 -7 -15 -1 -30 6 -16 6
-25 0 -25 -6 0 -6 -9 0 -25 6 -16 6 -25 0 -25 -6 0 -6 -9 0 -25 5 -14 6 -25 2
-25 -8 0 -7 -162 1 -185 4 -8 3 -15 -1 -15 -4 0 -7 -38 -7 -85 0 -47 3 -85 7
-85 4 0 3 -11 -2 -25 -6 -16 -6 -25 0 -25 6 0 6 -9 0 -25 -6 -16 -6 -25 0 -25
6 0 6 -9 0 -25 -6 -15 -6 -26 0 -30 7 -4 6 -13 0 -25 -7 -13 -7 -21 0 -25 7
-4 7 -12 0 -25 -7 -13 -7 -21 0 -25 7 -4 7 -13 0 -26 -7 -12 -7 -19 -1 -19 7
0 7 -9 1 -25 -6 -15 -6 -27 0 -30 5 -3 7 -11 4 -18 -8 -22 -10 -107 -2 -107 4
0 3 -11 -2 -25 -6 -16 -6 -25 0 -25 6 0 6 -9 0 -25 -6 -16 -6 -25 0 -25 6 0 6
-9 0 -25 -6 -15 -6 -26 0 -30 7 -4 6 -13 0 -25 -7 -13 -7 -21 0 -25 7 -4 7
-12 0 -25 -7 -13 -7 -21 0 -25 7 -4 7 -13 0 -26 -7 -12 -7 -19 -1 -19 7 0 7
-9 1 -25 -6 -15 -6 -26 0 -30 6 -4 7 -13 1 -23 -6 -11 -6 -24 0 -34 6 -10 6
-19 0 -23 -7 -4 -7 -15 -1 -30 6 -16 6 -25 0 -25 -6 0 -6 -9 0 -25 6 -16 6
-25 0 -25 -6 0 -6 -9 0 -25 6 -15 6 -25 0 -25 -5 0 -5 -12 0 -30 5 -18 5 -30
0 -30 -6 0 -6 -10 0 -25 6 -17 6 -25 -1 -25 -6 0 -7 -5 -4 -11 4 -5 8 -37 10
-69 2 -33 7 -70 11 -82 4 -13 8 -30 9 -38 2 -29 29 -110 37 -110 4 0 8 -11 8
-25 0 -14 4 -25 9 -25 5 0 11 -8 15 -17 14 -45 69 -121 136 -192 31 -33 126
-111 134 -111 4 0 23 -11 44 -25 31 -20 188 -85 207 -85 3 0 6 0 8 -1 14 -4
52 -9 101 -13 32 -3 60 -7 63 -10 3 -3 16 -1 29 4 15 6 24 6 24 0 0 -6 9 -6
25 0 16 6 25 6 25 -1 0 -6 7 -6 19 1 13 7 22 7 26 0 4 -7 12 -7 25 0 13 7 21
7 25 0 5 -8 11 -8 20 0 9 8 15 8 20 0 4 -6 12 -7 23 -1 11 6 24 6 35 0 9 -6
17 -6 17 -2 0 4 11 8 25 8 14 0 25 -4 25 -8 0 -4 9 -3 19 3 13 7 22 7 26 0 4
-7 12 -7 25 0 12 6 21 7 25 0 3 -5 15 -6 28 -1 14 5 30 5 40 0 11 -7 17 -6 17
0 0 7 8 7 25 1 16 -6 25 -6 25 1 0 6 7 6 19 -1 13 -6 22 -7 26 0 3 5 15 6 28
1 12 -5 34 -5 49 0 17 4 28 4 28 -2 0 -6 7 -6 19 1 13 6 22 7 26 0 4 -6 15 -6
30 0 16 6 25 6 25 0 0 -6 9 -6 25 0 16 6 25 6 25 -1 0 -6 7 -6 19 1 13 7 22 7
26 0 4 -7 13 -7 26 0 13 8 19 7 19 0 0 -7 6 -8 18 -1 11 6 24 6 35 0 11 -7 17
-7 17 0 0 7 8 7 25 1 14 -5 25 -6 25 -2 0 9 42 8 57 -1 7 -4 14 -3 18 2 4 7
15 7 30 1 16 -6 25 -6 25 0 0 6 9 6 25 0 17 -6 25 -6 25 1 0 6 5 7 11 3 15 -9
103 -9 118 0 6 4 11 3 11 -3 0 -7 8 -7 26 -1 16 7 23 7 19 0 -4 -7 2 -7 19 0
16 6 27 6 31 0 4 -7 13 -7 24 0 12 6 22 5 28 -1 8 -8 13 -8 17 0 4 7 15 7 30
1 13 -5 26 -7 29 -4 2 2 26 7 53 9 104 11 239 57 324 110 25 16 47 29 49 29 5
1 58 47 100 86 43 41 121 141 121 156 0 8 3 14 8 14 12 0 79 156 89 210 2 14
8 43 13 65 6 24 9 2950 9 7330 l0 7290 -26 100 c-14 55 -29 102 -34 103 -5 2
-9 15 -9 28 0 13 -4 24 -10 24 -5 0 -10 5 -10 11 0 6 -20 41 -44 78 -61 91
-167 198 -221 223 -14 6 -25 14 -25 17 0 4 -20 15 -45 26 -25 11 -45 24 -45
28 0 5 -4 6 -9 2 -5 -3 -12 -1 -16 5 -3 5 -16 10 -29 10 -12 0 -26 3 -30 7 -3
4 -12 8 -19 9 -7 1 -39 9 -72 18 -54 14 -442 16 -4151 16 -2250 0 -4093 -2
-4095 -4z"/>
<path d="M7168 16005 c-3 -4 -27 -8 -53 -11 -48 -4 -167 -31 -195 -44 -85 -41
-170 -86 -170 -92 0 -4 -8 -9 -18 -12 -30 -10 -147 -131 -191 -198 -22 -34
-46 -69 -52 -76 -5 -7 -11 -21 -12 -32 -1 -11 -5 -20 -9 -20 -4 0 -8 -9 -8
-20 0 -11 -5 -20 -12 -20 -6 0 -9 -2 -6 -6 5 -4 -6 -48 -30 -119 -4 -11 -8
-3306 -9 -7323 -3 -6595 -2 -7310 13 -7375 8 -40 16 -77 18 -84 1 -7 5 -16 9
-19 4 -4 7 -17 7 -29 0 -11 5 -26 12 -33 7 -7 8 -12 2 -12 -5 0 -5 -3 1 -8 6
-4 20 -28 33 -53 12 -26 29 -52 37 -59 8 -7 15 -16 15 -21 0 -38 245 -249 289
-249 6 0 11 -4 11 -10 0 -5 11 -10 24 -10 13 0 26 -4 28 -9 2 -5 48 -20 103
-34 l100 -26 4115 2 c3982 2 4117 3 4175 21 33 10 66 18 73 19 6 0 12 4 12 9
0 4 8 8 18 9 9 0 40 13 67 29 28 16 60 34 73 39 12 6 22 15 22 21 0 5 6 10 13
10 21 0 141 124 186 192 22 34 46 69 52 76 5 7 11 21 12 32 1 11 5 20 9 20 4
0 8 9 8 20 0 11 4 20 10 20 5 0 9 3 8 7 -2 10 13 75 20 88 14 23 15 92 18 965
l3 915 -26 100 c-14 55 -29 102 -34 103 -5 2 -9 15 -9 28 0 13 -4 24 -10 24
-5 0 -10 5 -10 10 0 14 -66 117 -94 148 -67 75 -141 142 -155 142 -5 0 -11 4
-13 8 -5 12 -89 59 -149 83 -68 27 -158 49 -228 55 -30 2 -57 6 -59 8 -2 2
-17 0 -33 -4 -17 -5 -29 -5 -29 0 0 6 -10 6 -25 0 -15 -6 -26 -6 -30 1 -4 5
-13 6 -22 0 -9 -5 -29 -5 -45 -1 -16 5 -28 5 -28 0 0 -6 -10 -6 -25 0 -14 5
-25 6 -25 1 0 -5 -12 -6 -27 -2 -16 4 -43 4 -60 0 -18 -4 -33 -3 -33 2 0 5
-11 4 -25 -1 -15 -6 -26 -6 -30 1 -4 5 -13 6 -22 0 -9 -5 -29 -5 -45 -1 -15 5
-28 5 -28 0 0 -5 -12 -5 -27 -1 -16 4 -40 4 -55 0 -16 -4 -28 -3 -28 1 0 5
-14 5 -30 0 -18 -5 -30 -5 -30 0 0 6 -10 6 -25 0 -15 -6 -26 -6 -30 1 -4 5
-13 6 -22 0 -9 -5 -29 -5 -45 -1 -16 5 -28 5 -28 0 0 -6 -10 -6 -25 0 -14 5
-25 6 -25 1 0 -5 -12 -6 -27 -2 -16 4 -43 4 -60 0 -18 -4 -33 -3 -33 2 0 5
-11 4 -25 -1 -15 -6 -26 -6 -30 0 -4 6 -14 6 -28 -2 -12 -6 -24 -10 -27 -8
-21 12 -50 18 -50 10 0 -5 -12 -5 -30 0 -19 5 -30 5 -30 -1 0 -6 -5 -7 -11 -3
-13 8 -187 9 -195 1 -4 -3 -17 -2 -30 3 -14 6 -24 6 -24 0 0 -5 -12 -5 -30 0
-17 5 -30 5 -30 0 0 -5 -12 -5 -27 -1 -16 4 -40 4 -55 0 -16 -4 -28 -3 -28 1
0 5 -13 5 -30 0 -18 -5 -30 -5 -30 0 0 6 -10 6 -25 0 -15 -6 -27 -6 -30 0 -3
6 -15 6 -30 0 -15 -6 -27 -6 -30 0 -4 6 -13 7 -23 1 -11 -6 -24 -6 -34 0 -10
6 -19 6 -23 0 -4 -7 -15 -7 -30 -1 -15 6 -25 6 -25 0 0 -5 -12 -5 -30 0 -17 5
-30 5 -30 0 0 -5 -12 -5 -27 -1 -16 4 -40 4 -55 0 -16 -4 -28 -3 -28 1 0 5
-13 5 -30 0 -18 -5 -30 -5 -30 0 0 6 -10 6 -25 0 -15 -6 -27 -6 -30 0 -3 6
-15 6 -30 0 -15 -6 -27 -6 -30 0 -4 6 -13 7 -23 1 -11 -6 -24 -6 -34 0 -10 6
-19 6 -23 0 -4 -7 -15 -7 -30 -1 -15 6 -25 6 -25 0 0 -5 -12 -5 -30 0 -17 5
-30 5 -30 0 0 -5 -12 -5 -27 -1 -16 4 -40 4 -55 0 -16 -4 -28 -3 -28 1 0 5
-13 5 -30 0 -18 -5 -30 -5 -30 0 0 6 -10 6 -25 0 -15 -6 -27 -6 -30 0 -3 6
-15 6 -30 0 -15 -6 -27 -6 -30 0 -4 6 -13 7 -23 1 -11 -6 -24 -6 -34 0 -10 6
-19 6 -23 0 -4 -7 -15 -7 -30 -1 -15 6 -25 6 -25 0 0 -5 -12 -5 -30 0 -17 5
-30 5 -30 0 0 -5 -12 -5 -27 -1 -16 4 -40 4 -55 0 -16 -4 -28 -3 -28 1 0 5
-13 5 -30 0 -18 -5 -30 -5 -30 0 0 6 -10 6 -25 0 -15 -6 -27 -6 -30 0 -3 6
-15 6 -30 0 -15 -6 -27 -6 -30 0 -4 7 -13 7 -24 0 -10 -5 -21 -6 -25 -3 -8 8
-112 7 -126 -2 -5 -3 -10 -2 -10 4 0 7 -8 7 -25 1 -15 -6 -26 -6 -30 0 -4 6
-13 7 -24 1 -9 -5 -23 -6 -31 -1 -7 4 -23 4 -36 0 -12 -5 -25 -6 -28 -3 -8 8
-86 9 -86 1 0 -4 -12 -3 -27 1 -16 4 -40 4 -55 0 -16 -4 -28 -3 -28 1 0 5 -13
5 -30 0 -18 -5 -30 -5 -30 0 0 6 -10 6 -25 0 -15 -6 -26 -6 -30 1 -4 5 -13 6
-22 0 -9 -5 -29 -5 -45 -1 -16 5 -28 5 -28 0 0 -6 -10 -6 -25 0 -14 5 -25 6
-25 1 0 -5 -12 -6 -27 -2 -16 4 -43 4 -60 0 -18 -4 -33 -3 -33 2 0 5 -11 4
-25 -1 -15 -6 -26 -6 -30 1 -4 5 -13 6 -22 0 -9 -5 -29 -5 -45 -1 -15 5 -28 5
-28 0 0 -5 -12 -5 -27 -1 -16 4 -40 4 -55 0 -16 -4 -28 -3 -28 1 0 5 -13 5
-30 0 -18 -5 -30 -5 -30 0 0 6 -10 6 -25 0 -15 -6 -26 -6 -30 1 -4 5 -13 6
-22 0 -9 -5 -29 -5 -45 -1 -16 5 -28 5 -28 0 0 -6 -10 -6 -25 0 -16 6 -25 6
-25 0 0 -5 -6 -7 -13 -4 -24 9 -98 10 -103 2 -3 -5 -11 -5 -17 -1 -7 4 -19 8
-27 10 -83 11 -109 17 -168 37 -140 48 -279 146 -362 255 -14 18 -30 38 -36
45 -25 26 -75 129 -100 202 -28 84 -36 123 -38 191 0 24 -4 43 -8 43 -4 0 -5
6 -2 13 8 23 10 97 2 97 -4 0 -3 11 2 25 6 16 6 25 0 25 -6 0 -6 9 0 25 6 16
6 25 0 25 -6 0 -6 9 0 25 6 15 6 26 0 30 -7 4 -6 13 0 25 7 13 7 21 0 25 -7 4
-7 12 0 25 7 13 7 21 0 25 -7 4 -7 13 0 26 7 12 7 19 1 19 -7 0 -7 9 -1 25 6
15 6 27 0 30 -5 3 -7 11 -4 18 8 22 10 107 2 107 -4 0 -3 11 2 25 6 16 6 25 0
25 -6 0 -6 9 0 25 6 16 6 25 0 25 -6 0 -6 9 0 25 6 15 6 26 0 30 -7 4 -6 13 0
25 7 13 7 21 0 25 -7 4 -7 12 0 25 7 13 7 21 0 25 -7 4 -7 13 0 26 7 12 7 19
1 19 -7 0 -7 9 -1 25 6 15 6 26 0 30 -6 4 -7 13 -1 23 6 11 6 24 0 34 -6 10
-6 19 0 23 7 4 7 15 1 30 -6 16 -6 25 0 25 6 0 6 9 1 23 -8 21 -6 66 4 75 2 2
0 15 -5 28 -6 16 -6 24 1 24 6 0 6 6 0 18 -7 13 -7 22 0 29 8 8 7 13 0 17 -8
5 -8 13 -1 27 7 12 7 19 1 19 -7 0 -7 8 -2 23 5 12 5 32 0 45 -5 13 -5 22 2
22 6 0 6 6 0 18 -6 11 -6 24 0 35 7 11 7 17 0 17 -7 0 -7 8 -2 23 5 12 5 32 0
45 -5 13 -5 22 2 22 6 0 6 6 0 18 -7 13 -7 22 0 29 8 8 7 13 0 17 -8 5 -8 13
-1 27 8 13 7 19 0 19 -6 0 -8 5 -5 10 9 14 10 103 2 116 -3 6 -2 16 3 24 5 8
5 21 -1 31 -6 11 -5 20 1 24 6 3 6 15 0 30 -6 15 -6 27 0 30 7 4 6 13 0 25 -7
13 -7 21 0 25 7 4 7 12 0 24 -5 10 -6 21 -3 25 9 8 10 66 1 66 -4 0 -3 11 2
25 6 15 6 26 0 30 -7 4 -6 13 0 25 7 13 7 21 0 25 -7 4 -7 12 0 25 7 13 7 21
0 25 -6 4 -7 13 -1 23 6 11 6 24 0 34 -6 11 -6 19 1 23 7 4 7 12 0 24 -5 10
-7 21 -5 23 9 8 11 98 3 98 -4 0 -3 11 2 25 6 16 6 25 0 25 -6 0 -6 9 0 25 6
17 6 25 -1 25 -6 0 -7 4 -4 10 9 15 12 90 3 90 -4 0 -3 11 2 25 6 15 6 26 0
30 -6 4 -7 13 -1 23 6 11 6 24 0 34 -6 11 -6 19 1 23 7 4 7 12 0 25 -7 13 -7
21 0 25 7 4 7 12 0 25 -6 12 -7 21 0 25 6 3 6 15 0 30 -6 15 -6 27 0 30 6 4 7
13 1 23 -8 16 -6 61 4 70 2 2 0 15 -5 28 -6 16 -6 24 1 24 6 0 6 6 0 18 -7 13
-7 22 0 29 8 8 7 13 0 17 -8 5 -8 13 -1 27 7 12 7 19 1 19 -7 0 -7 8 -2 23 5
12 5 32 0 45 -5 13 -5 22 2 22 6 0 6 6 0 18 -6 11 -6 24 0 35 7 11 7 17 0 17
-7 0 -7 8 -2 23 5 12 5 32 0 45 -5 13 -5 22 2 22 6 0 6 6 0 18 -7 13 -7 22 0
29 8 8 7 13 0 17 -8 5 -8 13 -1 27 8 13 7 19 0 19 -6 0 -8 5 -5 10 9 14 10
108 2 116 -3 4 -2 15 3 25 7 12 7 20 0 24 -7 4 -7 12 0 25 7 13 7 21 0 25 -6
4 -8 11 -5 16 9 14 11 89 3 89 -4 0 -3 11 2 25 6 16 6 25 0 25 -6 0 -6 9 0 25
6 16 6 25 0 25 -6 0 -6 9 0 25 6 15 6 26 0 30 -7 4 -6 13 0 25 7 13 7 21 0 25
-7 4 -7 12 0 25 7 13 7 21 0 25 -7 4 -7 13 0 26 7 12 7 19 1 19 -7 0 -7 9 -1
25 6 15 6 27 0 30 -5 3 -7 11 -4 18 8 22 10 107 2 107 -4 0 -3 11 2 25 6 16 6
25 0 25 -6 0 -6 9 0 25 6 16 6 25 0 25 -6 0 -6 9 0 25 6 15 6 26 0 30 -7 4 -6
13 0 25 7 13 7 21 0 25 -7 4 -7 12 0 25 7 13 7 21 0 25 -7 4 -7 13 0 26 7 12
7 19 1 19 -7 0 -7 9 -1 25 6 15 6 26 0 30 -6 4 -7 13 -1 23 6 11 6 24 0 34 -6
10 -6 19 0 23 7 4 7 15 1 30 -6 16 -6 25 0 25 6 0 6 9 1 23 -8 21 -6 66 4 75
2 2 0 15 -5 28 -6 16 -6 24 1 24 6 0 6 6 0 18 -7 13 -7 22 0 29 8 8 7 13 0 17
-8 5 -8 13 -1 27 7 12 7 19 1 19 -7 0 -7 8 -2 23 5 12 5 32 0 45 -5 13 -5 22
2 22 6 0 6 6 0 18 -6 11 -6 24 0 35 7 11 7 17 0 17 -7 0 -7 8 -2 23 5 12 5 32
0 45 -5 13 -5 22 2 22 6 0 6 6 0 18 -7 13 -7 22 0 29 8 8 7 13 0 17 -8 5 -8
13 -1 27 8 13 7 19 0 19 -6 0 -8 5 -5 10 9 14 10 103 2 116 -3 6 -2 16 3 24 5
8 5 21 -1 31 -6 11 -5 20 1 24 6 3 6 15 0 30 -6 15 -6 27 0 30 7 4 6 13 0 25
-7 13 -7 21 0 25 7 4 7 12 0 24 -5 10 -6 21 -3 25 9 8 10 66 1 66 -4 0 -3 11
2 25 6 15 6 26 0 30 -7 4 -6 13 0 25 7 13 7 21 0 25 -7 4 -7 12 0 25 7 13 7
21 0 25 -6 4 -7 13 -1 23 6 11 6 24 0 34 -6 11 -6 19 1 23 7 4 7 12 0 24 -5
10 -7 21 -5 23 9 8 11 98 3 98 -4 0 -3 11 2 25 6 16 6 25 0 25 -6 0 -6 9 0 25
6 17 6 25 -1 25 -6 0 -7 4 -4 10 9 15 12 90 3 90 -4 0 -3 11 2 25 6 15 6 26
-1 30 -6 4 -6 13 0 23 6 10 6 23 0 34 -6 10 -5 19 1 23 7 4 7 12 0 25 -7 13
-7 21 0 25 7 4 7 12 0 25 -6 12 -7 21 0 25 6 3 6 15 0 30 -6 15 -6 27 0 30 6
4 7 13 1 23 -8 16 -6 61 4 70 2 2 0 15 -5 28 -6 16 -6 24 1 24 6 0 6 6 0 18
-7 13 -7 22 0 29 8 8 7 13 0 17 -8 5 -8 13 -1 27 7 12 7 19 1 19 -7 0 -7 8 -2
23 5 12 5 32 0 45 -5 13 -5 22 2 22 6 0 6 6 0 18 -6 11 -6 24 0 35 7 11 7 17
0 17 -7 0 -7 8 -2 23 5 12 5 32 0 45 -5 13 -5 22 2 22 6 0 6 6 0 18 -7 13 -7
22 0 29 8 8 7 13 0 17 -8 5 -8 13 -1 27 8 13 7 19 0 19 -6 0 -8 5 -5 10 9 14
10 108 2 116 -3 4 -2 15 3 25 7 12 7 20 0 24 -7 4 -7 12 0 25 7 13 7 21 0 25
-6 4 -8 11 -5 16 9 14 11 89 3 89 -4 0 -3 11 2 25 6 16 6 25 0 25 -6 0 -6 9 0
25 6 16 6 25 0 25 -6 0 -6 9 0 25 6 15 6 26 0 30 -7 4 -6 13 0 25 7 13 7 21 0
25 -7 4 -7 12 0 25 7 13 7 21 0 25 -7 4 -7 13 0 26 7 12 7 19 1 19 -7 0 -7 9
-1 25 6 15 6 27 0 30 -5 3 -7 11 -4 18 8 22 10 107 2 107 -4 0 -3 11 2 25 6
16 6 25 0 25 -6 0 -6 9 0 25 6 16 6 25 0 25 -6 0 -6 9 0 25 6 15 6 26 0 30 -7
4 -6 13 0 25 7 13 7 21 0 25 -7 4 -7 12 0 25 7 13 7 21 0 25 -7 4 -7 13 0 26
7 12 7 19 1 19 -7 0 -7 9 -1 25 6 15 6 26 0 30 -6 4 -7 13 -1 23 6 11 6 24 0
34 -6 10 -6 19 0 23 7 4 7 15 1 30 -6 16 -6 25 0 25 6 0 6 9 1 23 -8 21 -6 66
4 75 2 2 0 15 -5 28 -6 16 -6 24 1 24 6 0 6 6 0 18 -7 13 -7 22 0 29 8 8 7 13
0 17 -8 5 -8 13 -1 27 7 12 7 19 1 19 -7 0 -7 8 -2 23 5 12 5 32 0 45 -5 13
-5 22 2 22 6 0 6 6 0 18 -6 11 -6 24 0 35 7 11 7 17 0 17 -7 0 -7 8 -2 23 5
12 5 32 0 45 -5 13 -5 22 2 22 6 0 6 6 0 18 -7 13 -7 22 0 29 8 8 7 13 0 17
-8 5 -8 13 -1 27 8 13 7 19 0 19 -6 0 -8 5 -5 10 9 14 10 103 2 116 -3 6 -2
16 3 24 5 8 5 21 -1 31 -6 11 -5 20 1 24 6 3 6 15 0 30 -6 15 -6 27 0 30 7 4
6 13 0 25 -7 13 -7 21 0 25 7 4 7 12 0 24 -5 10 -6 21 -3 25 9 8 10 66 1 66
-4 0 -3 11 2 25 6 15 6 26 0 30 -7 4 -6 13 0 25 7 13 7 21 0 25 -7 4 -7 12 0
25 7 13 7 21 0 25 -6 4 -7 13 -1 23 6 11 6 24 0 34 -6 11 -6 19 1 23 7 4 7 12
0 24 -5 10 -7 21 -5 23 9 8 11 98 3 98 -4 0 -3 11 2 25 6 16 6 25 0 25 -6 0
-6 9 0 25 6 17 6 25 -1 25 -6 0 -7 4 -4 10 9 15 12 90 3 90 -4 0 -3 11 2 25 6
15 6 26 0 30 -6 4 -7 13 -1 23 6 11 6 24 0 34 -6 11 -6 19 1 23 7 4 7 12 0 25
-7 13 -7 21 0 25 7 4 7 12 0 25 -6 12 -7 21 0 25 6 3 6 15 0 30 -6 15 -6 27 0
30 6 4 7 13 1 23 -8 16 -6 61 4 70 2 2 0 15 -5 28 -6 16 -6 24 1 24 6 0 6 6 0
18 -7 13 -7 22 0 29 8 8 7 13 0 17 -8 5 -8 13 -1 27 7 12 7 19 1 19 -7 0 -7 8
-2 23 5 12 5 32 0 45 -5 13 -5 22 2 22 6 0 6 6 0 18 -6 11 -6 24 0 35 7 12 6
17 -1 17 -6 0 -8 5 -4 11 9 15 8 114 -1 128 -3 6 -1 11 5 11 6 0 8 5 4 11 -4
6 -8 23 -9 38 -5 57 -18 117 -40 180 -20 59 -62 148 -75 161 -3 3 -17 23 -31
45 -41 61 -132 151 -196 192 -15 9 -30 21 -33 24 -8 12 -133 66 -191 84 -68
21 -82 23 -146 29 -28 2 -57 7 -62 11 -6 3 -11 3 -11 -2 0 -4 -11 -8 -25 -8
-14 0 -25 3 -25 7 0 4 -11 3 -25 -2 -16 -6 -25 -6 -25 1 0 6 -7 6 -20 -1 -13
-7 -20 -7 -20 -1 0 7 -8 7 -24 1 -15 -5 -27 -5 -34 2 -6 6 -12 6 -16 -1 -5 -7
-15 -7 -31 -1 -16 6 -25 6 -25 0 0 -6 -9 -6 -22 -1 -13 5 -33 5 -45 0 -14 -5
-23 -5 -23 1 0 6 -9 6 -25 0 -16 -6 -25 -6 -25 0 0 6 -9 6 -25 0 -16 -6 -25
-6 -25 1 0 6 -7 6 -20 -1 -13 -7 -20 -7 -20 -1 0 7 -8 7 -24 1 -15 -5 -27 -5
-34 2 -6 6 -12 6 -16 -1 -5 -8 -13 -8 -27 -1 -12 7 -19 7 -19 1 0 -6 -11 -6
-30 -1 -18 5 -32 5 -35 -1 -4 -5 -14 -5 -26 1 -12 7 -19 7 -19 1 0 -7 -9 -7
-25 -1 -16 6 -25 6 -25 0 0 -5 -10 -6 -22 -2 -25 8 -80 7 -104 -2 -8 -3 -14
-1 -14 4 0 6 -9 6 -25 0 -16 -6 -25 -6 -25 1 0 6 -7 6 -19 -1 -13 -7 -22 -7
-26 0 -4 7 -12 7 -25 0 -13 -7 -21 -7 -25 0 -5 8 -11 8 -19 1 -7 -6 -15 -8
-19 -5 -7 8 -67 12 -67 5 0 -3 -11 -6 -25 -6 -14 0 -25 3 -25 7 0 4 -11 3 -25
-2 -16 -6 -25 -6 -25 1 0 6 -6 6 -18 0 -13 -7 -22 -7 -29 0 -8 8 -13 7 -17 0
-5 -8 -13 -8 -26 -1 -13 7 -21 7 -25 0 -4 -7 -12 -7 -25 0 -13 7 -21 7 -25 0
-5 -8 -11 -8 -20 0 -9 7 -15 8 -19 1 -5 -7 -15 -7 -31 -1 -16 6 -25 6 -25 0 0
-5 -9 -6 -22 -1 -13 4 -35 5 -50 0 -16 -4 -28 -3 -30 2 -2 6 -6 7 -10 4z"/>
</g>
</svg>
