<?xml version="1.0" standalone="no"?>
<!DOCTYPE svg PUBLIC "-//W3C//DTD SVG 20010904//EN"
 "http://www.w3.org/TR/2001/REC-SVG-20010904/DTD/svg10.dtd">
<svg version="1.0" xmlns="http://www.w3.org/2000/svg"
 width="700.000000pt" height="700.000000pt" viewBox="0 0 700.000000 700.000000"
 preserveAspectRatio="xMidYMid meet">
<metadata>
Created by potrace 1.14, written by Peter Selinger 2001-2017
</metadata>
<g transform="translate(0.000000,700.000000) scale(0.100000,-0.100000)"
fill="#000000" stroke="none">
<path d="M1608 6989 c-769 -61 -1412 -628 -1567 -1384 -40 -192 -42 -326 -39
-2210 4 -2014 0 -1880 73 -2134 164 -571 616 -1022 1187 -1186 255 -74 123
-70 2243 -70 2122 0 1976 -5 2235 70 569 164 1021 616 1185 1187 74 255 70
124 70 2238 0 1775 -1 1902 -18 2008 -60 378 -228 712 -492 976 -258 258 -559
415 -940 488 -110 22 -117 22 -1970 24 -1023 1 -1908 -2 -1967 -7z m2692
-2064 l0 -445 -739 -947 -740 -948 740 -3 739 -2 0 -470 0 -470 -1395 0 -1395
0 0 440 0 440 731 953 730 952 -730 3 -731 2 0 463 c0 255 3 467 7 470 3 4
631 7 1395 7 l1388 0 0 -445z m1190 -2820 l0 -465 -470 0 -470 0 0 465 0 465
470 0 470 0 0 -465z"/>
</g>
</svg>
